<svg xmlns="http://www.w3.org/2000/svg" width="32" height="32" viewBox="0 0 32 32">
  <defs>
    <linearGradient id="grad1" x1="0%" y1="0%" x2="100%" y2="100%">
      <stop offset="0%" style="stop-color:#8B5CF6;stop-opacity:1" />
      <stop offset="100%" style="stop-color:#EC4899;stop-opacity:1" />
    </linearGradient>
  </defs>
  
  <!-- Background circle -->
  <circle cx="16" cy="16" r="15" fill="url(#grad1)" stroke="#fff" stroke-width="2"/>
  
  <!-- Chat bubble 1 -->
  <path d="M8 12c0-1.1.9-2 2-2h8c1.1 0 2 .9 2 2v4c0 1.1-.9 2-2 2h-6l-3 2v-2c-1.1 0-2-.9-2-2v-4z" fill="#fff" opacity="0.9"/>
  
  <!-- Chat bubble 2 -->
  <path d="M12 18c0-1.1.9-2 2-2h6c1.1 0 2 .9 2 2v3c0 1.1-.9 2-2 2h-4l-2 1.5v-1.5c-1.1 0-2-.9-2-2v-3z" fill="#fff" opacity="0.7"/>
  
  <!-- Dots in first bubble -->
  <circle cx="12" cy="14" r="1" fill="url(#grad1)"/>
  <circle cx="16" cy="14" r="1" fill="url(#grad1)"/>
  <circle cx="20" cy="14" r="1" fill="url(#grad1)"/>
</svg>